<svg width="15" height="19" viewBox="0 0 15 19" fill="none" xmlns="http://www.w3.org/2000/svg">
<path d="M9.62744 0.842102V4.63245C9.62744 4.88377 9.72728 5.12479 9.90498 5.3025C10.0827 5.48021 10.3237 5.58004 10.575 5.58004H14.3654" stroke="#0FA958" stroke-width="1.17632" stroke-linecap="round" stroke-linejoin="round"/>
<path d="M12.4702 17.8987H2.9943C2.49166 17.8987 2.00962 17.699 1.65421 17.3436C1.29879 16.9882 1.09912 16.5061 1.09912 16.0035V2.73728C1.09912 2.23465 1.29879 1.7526 1.65421 1.39719C2.00962 1.04177 2.49166 0.842102 2.9943 0.842102H9.62741L14.3653 5.58004V16.0035C14.3653 16.5061 14.1657 16.9882 13.8103 17.3436C13.4548 17.699 12.9728 17.8987 12.4702 17.8987Z" stroke="#0FA958" stroke-width="1.17632" stroke-linecap="round" stroke-linejoin="round"/>
</svg>
